<svg width="21" height="20" viewBox="0 0 21 20" fill="none" xmlns="http://www.w3.org/2000/svg">
<path d="M9.54829 0.56794C9.92216 -0.189602 11.0024 -0.189604 11.3763 0.567938L13.8197 5.51884C13.9681 5.81966 14.2551 6.02817 14.5871 6.07641L20.0507 6.87032C20.8867 6.9918 21.2206 8.01916 20.6156 8.60882L16.6621 12.4626C16.4219 12.6967 16.3122 13.0341 16.369 13.3647L17.3023 18.8063C17.4451 19.6389 16.5711 20.2739 15.8234 19.8807L10.9366 17.3116C10.6396 17.1555 10.2849 17.1555 9.98798 17.3116L5.10115 19.8807C4.35341 20.2739 3.47949 19.6389 3.62229 18.8063L4.55559 13.3647C4.6123 13.0341 4.50268 12.6967 4.26247 12.4626L0.308935 8.60882C-0.295999 8.01916 0.0378099 6.9918 0.873807 6.87032L6.33745 6.07641C6.66943 6.02817 6.95641 5.81966 7.10487 5.51884L9.54829 0.56794Z" fill="#FFC800"/>
</svg>
