<svg xmlns="http://www.w3.org/2000/svg" xmlns:xlink="http://www.w3.org/1999/xlink" width="255" zoomAndPan="magnify" viewBox="0 0 191.25 89.999999" height="120" preserveAspectRatio="xMidYMid meet" version="1.0"><defs><g/><clipPath id="4360b9f765"><path d="M 13 28.273438 L 34.363281 28.273438 L 34.363281 50 L 13 50 Z M 13 28.273438 " clip-rule="nonzero"/></clipPath><clipPath id="3c081f01f5"><path d="M 1 40 L 23 40 L 23 61.890625 L 1 61.890625 Z M 1 40 " clip-rule="nonzero"/></clipPath></defs><g clip-path="url(#4360b9f765)"><path fill="#ffffff" d="M 23.257812 28.277344 C 20.242188 28.277344 17.410156 29.445312 15.28125 31.574219 L 13.636719 33.21875 C 13.242188 33.613281 13.023438 34.140625 13.023438 34.699219 C 13.023438 35.257812 13.242188 35.78125 13.636719 36.175781 C 14.425781 36.964844 15.800781 36.964844 16.59375 36.175781 L 18.238281 34.527344 C 21.003906 31.761719 25.507812 31.761719 28.273438 34.527344 C 29.617188 35.871094 30.355469 37.65625 30.355469 39.546875 C 30.355469 41.441406 29.617188 43.226562 28.273438 44.566406 L 26.628906 46.214844 C 26.234375 46.609375 26.015625 47.132812 26.015625 47.691406 C 26.015625 48.25 26.234375 48.773438 26.628906 49.167969 C 27.023438 49.5625 27.550781 49.78125 28.105469 49.78125 C 28.664062 49.78125 29.191406 49.5625 29.585938 49.167969 L 31.230469 47.523438 C 33.363281 45.390625 34.535156 42.558594 34.535156 39.546875 C 34.535156 36.539062 33.363281 33.707031 31.230469 31.574219 C 29.105469 29.445312 26.273438 28.277344 23.257812 28.277344 Z M 23.257812 28.277344 " fill-opacity="1" fill-rule="nonzero"/></g><g clip-path="url(#3c081f01f5)"><path fill="#ffffff" d="M 12.375 61.699219 C 15.390625 61.699219 18.222656 60.527344 20.351562 58.402344 L 21.996094 56.757812 C 22.390625 56.363281 22.609375 55.835938 22.609375 55.277344 C 22.609375 54.71875 22.390625 54.195312 21.996094 53.800781 C 21.207031 53.011719 19.832031 53.011719 19.039062 53.800781 L 17.394531 55.445312 C 14.628906 58.214844 10.125 58.214844 7.355469 55.445312 C 4.589844 52.679688 4.589844 48.175781 7.355469 45.410156 L 9.003906 43.761719 C 9.816406 42.949219 9.816406 41.621094 9.003906 40.808594 C 8.1875 39.992188 6.863281 39.992188 6.046875 40.808594 L 4.402344 42.453125 C 0.0078125 46.851562 0.0078125 54.003906 4.402344 58.402344 C 6.527344 60.527344 9.359375 61.699219 12.375 61.699219 Z M 12.375 61.699219 " fill-opacity="1" fill-rule="nonzero"/></g><path fill="#ffffff" d="M 10.722656 52.082031 C 11.117188 52.480469 11.640625 52.695312 12.199219 52.695312 C 12.757812 52.695312 13.28125 52.480469 13.675781 52.082031 L 24.910156 40.847656 C 25.308594 40.453125 25.523438 39.929688 25.523438 39.371094 C 25.523438 38.8125 25.308594 38.285156 24.910156 37.890625 C 24.121094 37.101562 22.746094 37.101562 21.957031 37.890625 L 10.722656 49.128906 C 10.328125 49.523438 10.109375 50.046875 10.109375 50.605469 C 10.109375 51.164062 10.328125 51.6875 10.722656 52.082031 Z M 10.722656 52.082031 " fill-opacity="1" fill-rule="nonzero"/><g fill="#ffffff" fill-opacity="1"><g transform="translate(47.688083, 58.437293)"><g><path d="M 9.171875 -27.96875 L 9.171875 -11.234375 C 9.171875 -9.554688 9.582031 -8.265625 10.40625 -7.359375 C 11.226562 -6.460938 12.4375 -6.015625 14.03125 -6.015625 C 15.625 -6.015625 16.84375 -6.460938 17.6875 -7.359375 C 18.539062 -8.265625 18.96875 -9.554688 18.96875 -11.234375 L 18.96875 -27.96875 L 25.78125 -27.96875 L 25.78125 -11.28125 C 25.78125 -8.78125 25.25 -6.664062 24.1875 -4.9375 C 23.125 -3.207031 21.695312 -1.90625 19.90625 -1.03125 C 18.113281 -0.15625 16.113281 0.28125 13.90625 0.28125 C 11.695312 0.28125 9.722656 -0.148438 7.984375 -1.015625 C 6.242188 -1.878906 4.867188 -3.179688 3.859375 -4.921875 C 2.847656 -6.660156 2.34375 -8.78125 2.34375 -11.28125 L 2.34375 -27.96875 Z M 9.171875 -27.96875 "/></g></g></g><g fill="#ffffff" fill-opacity="1"><g transform="translate(75.775137, 58.437293)"><g><path d="M 9.28125 -18.53125 C 10.082031 -19.75 11.078125 -20.707031 12.265625 -21.40625 C 13.460938 -22.113281 14.789062 -22.46875 16.25 -22.46875 L 16.25 -15.265625 L 14.390625 -15.265625 C 12.679688 -15.265625 11.398438 -14.894531 10.546875 -14.15625 C 9.703125 -13.425781 9.28125 -12.144531 9.28125 -10.3125 L 9.28125 0 L 2.46875 0 L 2.46875 -22.234375 L 9.28125 -22.234375 Z M 9.28125 -18.53125 "/></g></g></g><g fill="#ffffff" fill-opacity="1"><g transform="translate(92.82657, 58.437293)"><g><path d="M 9.28125 -29.484375 L 9.28125 0 L 2.46875 0 L 2.46875 -29.484375 Z M 9.28125 -29.484375 "/></g></g></g><g fill="#ffffff" fill-opacity="1"><g transform="translate(104.579304, 58.437293)"><g><path d="M 5.890625 -24.546875 C 4.703125 -24.546875 3.726562 -24.894531 2.96875 -25.59375 C 2.207031 -26.300781 1.828125 -27.171875 1.828125 -28.203125 C 1.828125 -29.265625 2.207031 -30.148438 2.96875 -30.859375 C 3.726562 -31.566406 4.703125 -31.921875 5.890625 -31.921875 C 7.066406 -31.921875 8.03125 -31.566406 8.78125 -30.859375 C 9.539062 -30.148438 9.921875 -29.265625 9.921875 -28.203125 C 9.921875 -27.171875 9.539062 -26.300781 8.78125 -25.59375 C 8.03125 -24.894531 7.066406 -24.546875 5.890625 -24.546875 Z M 9.28125 -22.234375 L 9.28125 0 L 2.46875 0 L 2.46875 -22.234375 Z M 9.28125 -22.234375 "/></g></g></g><g fill="#ffffff" fill-opacity="1"><g transform="translate(116.332039, 58.437293)"><g><path d="M 16.015625 -22.46875 C 18.617188 -22.46875 20.695312 -21.625 22.25 -19.9375 C 23.800781 -18.25 24.578125 -15.929688 24.578125 -12.984375 L 24.578125 0 L 17.8125 0 L 17.8125 -12.078125 C 17.8125 -13.554688 17.425781 -14.707031 16.65625 -15.53125 C 15.882812 -16.363281 14.847656 -16.78125 13.546875 -16.78125 C 12.242188 -16.78125 11.207031 -16.363281 10.4375 -15.53125 C 9.664062 -14.707031 9.28125 -13.554688 9.28125 -12.078125 L 9.28125 0 L 2.46875 0 L 2.46875 -22.234375 L 9.28125 -22.234375 L 9.28125 -19.28125 C 9.96875 -20.269531 10.894531 -21.046875 12.0625 -21.609375 C 13.238281 -22.179688 14.554688 -22.46875 16.015625 -22.46875 Z M 16.015625 -22.46875 "/></g></g></g><g fill="#ffffff" fill-opacity="1"><g transform="translate(143.184061, 58.437293)"><g><path d="M 16.0625 0 L 9.28125 -9.328125 L 9.28125 0 L 2.46875 0 L 2.46875 -29.484375 L 9.28125 -29.484375 L 9.28125 -13.1875 L 16.015625 -22.234375 L 24.421875 -22.234375 L 15.1875 -11.078125 L 24.5 0 Z M 16.0625 0 "/></g></g></g></svg>