<svg width="31" height="108" viewBox="0 0 31 108" fill="none" xmlns="http://www.w3.org/2000/svg">
<path d="M0.466671 1.68954C0.0309548 1.44982 -0.12793 0.902264 0.111791 0.466548C0.351514 0.0308316 0.899064 -0.128054 1.33478 0.111668L0.466671 1.68954ZM0.5511 104.783C0.092809 104.59 -0.122176 104.061 0.0709168 103.603L3.21755 96.1349C3.41064 95.6766 3.93869 95.4616 4.39698 95.6547C4.85527 95.8478 5.07026 96.3758 4.87717 96.8341L2.08016 103.473L8.71863 106.27C9.17692 106.463 9.39191 106.991 9.19881 107.449C9.00572 107.907 8.47767 108.122 8.01938 107.929L0.5511 104.783ZM1.33478 0.111668C17.1171 8.79477 28.6673 30.2217 30.5462 51.7317C32.4297 73.2948 24.6096 95.2724 1.24027 104.787L0.561184 103.119C22.9686 93.9961 30.5913 72.9439 28.7521 51.8884C26.9083 30.7797 15.5701 9.99909 0.466671 1.68954L1.33478 0.111668Z" fill="#5E17EB"/>
</svg>
