<svg width="64" height="99" viewBox="0 0 64 99" fill="none" xmlns="http://www.w3.org/2000/svg">
<path d="M3.93431 1.08817C4.03742 0.601271 3.72629 0.122975 3.23939 0.0198683C2.75248 -0.0832383 2.27419 0.227889 2.17108 0.714792L3.93431 1.08817ZM63.331 92.8989C63.6772 92.5413 63.6679 91.9708 63.3104 91.6246L57.4835 85.9831C57.1259 85.6369 56.5554 85.6461 56.2092 86.0037C55.863 86.3613 55.8722 86.9318 56.2298 87.278L61.4093 92.2927L56.3946 97.4722C56.0484 97.8297 56.0576 98.4002 56.4152 98.7464C56.7727 99.0926 57.3432 99.0834 57.6894 98.7258L63.331 92.8989ZM2.17108 0.714792C-2.37202 22.1688 0.180098 45.4402 10.1556 63.2844C20.1547 81.1709 37.6087 93.5787 62.6981 93.1731L62.669 91.371C38.3007 91.7649 21.4335 79.7649 11.7288 62.405C2.0004 45.0028 -0.534066 22.1893 3.93431 1.08817L2.17108 0.714792Z" fill="#5E17EB"/>
</svg>
