<svg width="31" height="108" viewBox="0 0 31 108" fill="none" xmlns="http://www.w3.org/2000/svg">
<path d="M30.3486 1.68954C30.7843 1.44982 30.9432 0.902264 30.7035 0.466548C30.4638 0.0308316 29.9162 -0.128054 29.4805 0.111668L30.3486 1.68954ZM30.2642 104.783C30.7225 104.59 30.9375 104.061 30.7444 103.603L27.5977 96.1349C27.4046 95.6766 26.8766 95.4616 26.4183 95.6547C25.96 95.8478 25.745 96.3758 25.9381 96.8341L28.7351 103.473L22.0967 106.27C21.6384 106.463 21.4234 106.991 21.6165 107.449C21.8096 107.907 22.3376 108.122 22.7959 107.929L30.2642 104.783ZM29.4805 0.111668C13.6982 8.79477 2.148 30.2217 0.269088 51.7317C-1.61446 73.2948 6.20569 95.2724 29.575 104.787L30.2541 103.119C7.84667 93.9961 0.223953 72.9439 2.06317 51.8884C3.90702 30.7797 15.2452 9.99909 30.3486 1.68954L29.4805 0.111668Z" fill="#5E17EB"/>
</svg>
