<svg width="20" height="20" viewBox="0 0 20 20" fill="none" xmlns="http://www.w3.org/2000/svg">
<path fill-rule="evenodd" clip-rule="evenodd" d="M9.99996 0C7.3478 0 4.80431 1.05357 2.92893 2.92895C1.05356 4.80432 0 7.34782 0 9.99998C0 12.6521 1.05357 15.1957 2.92893 17.0711C4.80431 18.9465 7.3478 20 9.99996 20C12.6523 20 15.1958 18.9465 17.0711 17.0711C18.9465 15.1957 20 12.6521 20 9.99998C20 7.34782 18.9465 4.8043 17.0711 2.92895C15.1958 1.05357 12.6523 0 9.99996 0ZM10.7692 9.55644V3.84673C10.7692 3.4219 10.4247 3.0775 9.99996 3.0775C9.57519 3.0775 9.23073 3.4219 9.23073 3.84673V9.98582C9.23011 10.016 9.23134 10.0461 9.23442 10.076C9.24519 10.1878 9.28011 10.2927 9.33381 10.3854C9.38719 10.4781 9.46058 10.5606 9.55196 10.626C9.57627 10.6435 9.6018 10.6595 9.62811 10.6741L14.9447 13.7437C15.3126 13.9561 15.7831 13.83 15.9955 13.4621C16.208 13.0943 16.0818 12.6238 15.714 12.4114L10.7692 9.55644Z" fill="white"/>
</svg>
